:SAMPLES-PER-SECOND 30
:FULLY-SPECIFIED
:DEGREES
294
root  -52.5401 34.6443 28.4119 -171.195 -42.3392 -179.034
RightUpLeg  -7.88547 13.6554 2.2007
RightLeg  14.6605 8.16804 1.57982
RightFoot  -4.97865 -0.0480135 -0.604809
RightToes  -6.49355 -0.0196021 -0.0603957
Spine  -1.76127 1.34332 -0.749713
Spine1  -3.53705 2.76761 -0.82524
HEad  -56.2964 -23.5982 10.1256
LeftShoulder1  -1.94126e-019 -3.10601e-018 -2.51263e-017
LeftArm  -10.364 20.0925 -78.459
LeftForeArm  32.6244 -28.2595 -4.78776
LeftHand  -0.476967 -3.64257 6.38934
RightShoulder  -4.96962e-017 0 -2.36833e-017
RightArm  -6.97349 -20.7829 72.167
RightForeArm  52.4672 50.0788 9.45647
RightHand  -0.454975 1.11782 -8.24387
LeftUpLeg  -27.4752 -0.211119 11.3606
LeftLeg  27.7376 11.6154 5.13175
LeftFoot  11.1192 -0.243253 2.6602
LeftToes  -29.4856 1.87998e-006 4.79886e-008
295
root  -53.5951 34.5307 28.5633 -170.561 -38.0011 -178.303
RightUpLeg  -8.76938 15.1705 0.570233
RightLeg  15.1881 10.884 2.20306
RightFoot  -5.35071 -0.0663169 -0.936703
RightToes  -10.9934 -0.0371374 -0.100766
Spine  -1.95037 0.800695 -0.211285
Spine1  -3.88369 1.64896 0.31464
HEad  -57.1321 -21.7689 9.49828
LeftShoulder1  -1.94126e-019 -3.10601e-018 -2.51263e-017
LeftArm  -10.1446 20.5407 -80.5425
LeftForeArm  31.8107 -26.7359 -4.5688
LeftHand  -0.422562 -1.67795 7.11588
RightShoulder  -4.96962e-017 0 -2.36833e-017
RightArm  -4.23956 -17.216 71.7433
RightForeArm  52.2095 52.1438 10.3471
RightHand  -0.430306 0.902323 -8.05268
LeftUpLeg  -27.4515 -12.6457 17.3076
LeftLeg  18.8675 14.8601 3.97929
LeftFoot  7.47447 -0.134227 2.21626
LeftToes  -17.7758 1.87998e-006 4.79886e-008
296
root  -54.7603 34.3866 28.748 -169.838 -33.981 -178.483
RightUpLeg  -9.59895 16.396 -1.88152
RightLeg  16.3891 13.2304 2.95688
RightFoot  -6.19081 -0.100315 -1.38817
RightToes  -16.0816 -0.060709 -0.144595
Spine  -2.00833 0.475943 -0.214083
Spine1  -4.00044 0.988919 0.330712
HEad  -58.442 -22.123 10.1339
LeftShoulder1  -1.94126e-019 -3.10601e-018 -2.51263e-017
LeftArm  -7.51755 20.5995 -81.0067
LeftForeArm  31.6215 -26.3474 -4.48557
LeftHand  -0.374132 -1.67925 6.31795
RightShoulder  -4.96962e-017 0 -2.36833e-017
RightArm  -4.58149 -14.8692 72.9956
RightForeArm  52.4226 52.3371 10.42
RightHand  -0.462556 1.09411 -8.40764
LeftUpLeg  -28.4624 -22.1413 21.3433
LeftLeg  14.2497 15.8799 2.92036
LeftFoot  4.57215 -0.0529565 1.48805
LeftToes  -9.67617 1.87998e-006 4.79886e-008
297
root  -56.1392 34.1937 28.8846 -169.995 -29.2147 -179.228
RightUpLeg  -9.62308 18.664 -4.86935
RightLeg  18.0975 14.9096 3.7868
RightFoot  -7.36121 -0.153081 -1.92466
RightToes  -21.269 -0.0886455 -0.186947
Spine  -1.65315 0.450068 -0.372491
Spine1  -3.30399 0.9524 0.00351992
HEad  -60.2524 -22.865 11.0626
LeftShoulder1  -1.94126e-019 -3.10601e-018 -2.51263e-017
LeftArm  -4.3544 20.2875 -81.2892
LeftForeArm  31.9713 -26.1399 -4.36945
LeftHand  -0.410129 -1.88337 6.73165
RightShoulder  -4.96962e-017 0 -2.36833e-017
RightArm  -5.55242 -13.0094 74.4679
RightForeArm  53.0644 51.3729 9.95773
RightHand  -0.49005 0.48707 -9.76372
LeftUpLeg  -26.7649 -19.8179 18.6578
LeftLeg  12.8634 9.60377 1.54287
LeftFoot  11.5631 -0.200005 2.13669
LeftToes  -30.1517 1.87998e-006 4.79886e-008
298
root  -57.618 33.915 29.1305 -169.645 -24.548 -179.614
RightUpLeg  -10.9204 21.1398 -8.0354
RightLeg  19.9829 14.8967 4.30158
RightFoot  -8.64916 -0.207566 -2.29073
RightToes  -26.1464 -0.118305 -0.224311
Spine  -1.65813 0.436497 -0.266782
Spine1  -3.3141 0.932017 0.215191
HEad  -61.6996 -24.1087 10.6497
LeftShoulder1  -1.94126e-019 -3.10601e-018 -2.51263e-017
LeftArm  -2.49787 20.0968 -82.1188
LeftForeArm  34.5923 -26.3093 -4.25533
LeftHand  -0.336922 -0.496026 6.74332
RightShoulder  -4.96962e-017 0 -2.36833e-017
RightArm  -6.8399 -12.2085 75.0673
RightForeArm  53.0567 50.6302 9.6524
RightHand  -0.487315 0.0465118 -10.4551
LeftUpLeg  -26.2803 -10.1582 13.8688
LeftLeg  16.2308 3.19156 0.707686
LeftFoot  13.2977 -0.0886211 0.921764
LeftToes  -44.0937 1.87998e-006 4.79886e-008
299
root  -59.0718 33.7782 29.4784 -168.004 -20.7537 178.059
RightUpLeg  -13.5076 19.6748 -12.549
RightLeg  23.126 10.7951 3.78117
RightFoot  -9.25952 -0.179537 -1.73858
RightToes  -30.0696 -0.144401 -0.25245
Spine  -1.7784 0.0348097 -0.733551
Spine1  -3.56481 0.11388 -0.70247
HEad  -63.4571 -25.4905 11.041
LeftShoulder1  -1.94126e-019 -3.10601e-018 -2.51263e-017
LeftArm  -3.4419 19.4048 -82.2829
LeftForeArm  36.5408 -24.5955 -3.96532
LeftHand  -0.354218 -0.399926 7.19501
RightShoulder  -4.96962e-017 0 -2.36833e-017
RightArm  -8.01092 -11.4721 76.4878
RightForeArm  52.8417 48.6415 8.89575
RightHand  -0.500592 -0.388561 -11.6296
LeftUpLeg  -28.2122 -4.06227 7.81516
LeftLeg  21.2469 1.19241 0.374319
LeftFoot  10.0238 -0.0196495 0.385571
LeftToes  -40.0336 1.87998e-006 4.79886e-008
300
root  -60.3258 33.8608 29.7027 -167.414 -17.4437 177.034
RightUpLeg  -15.3905 14.7422 -13.772
RightLeg  26.6047 1.30746 0.546108
RightFoot  -8.17422 -0.0399431 -0.0215114
RightToes  -26.238 -0.118892 -0.224988
Spine  -1.78498 -0.130061 -1.13457
Spine1  -3.58581 -0.207559 -1.5163
HEad  -65.0355 -27.2773 11.6443
LeftShoulder1  -1.94126e-019 -3.10601e-018 -2.51263e-017
LeftArm  -6.28465 18.6727 -81.4081
LeftForeArm  36.8913 -23.7821 -4.0585
LeftHand  -0.500944 -1.47123 8.64135
RightShoulder  -4.96962e-017 0 -2.36833e-017
RightArm  -11.4259 -11.7696 78.8782
RightForeArm  53.9747 44.2763 7.33713
RightHand  -0.537808 -0.696827 -13.2812
LeftUpLeg  -28.5473 -0.65717 4.15175
LeftLeg  23.4276 0.707038 0.250335
LeftFoot  8.21117 -0.00830236 0.277178
LeftToes  -37.5876 1.87998e-006 4.79886e-008
301
root  -61.4575 34.0726 29.8228 -167.948 -12.8812 177.362
RightUpLeg  -16.7034 8.20537 -12.142
RightLeg  29.8084 -9.74667 -4.75258
RightFoot  -9.19995 0.112819 2.01045
RightToes  -3.15504 -0.00866879 -0.0296217
Spine  -1.53323 0.196762 -1.13805
Spine1  -3.09705 0.471618 -1.55001
HEad  -66.3768 -28.0675 11.376
LeftShoulder1  -1.94126e-019 -3.10601e-018 -2.51263e-017
LeftArm  -7.93336 18.5268 -80.1306
LeftForeArm  31.4841 -24.4174 -4.18224
LeftHand  -0.316236 -0.225387 6.61328
RightShoulder  -4.96962e-017 0 -2.36833e-017
RightArm  -13.7792 -12.2763 80.3874
RightForeArm  52.6073 39.1614 5.92178
RightHand  -0.436691 -1.74416 -13.757
LeftUpLeg  -26.8622 2.06422 2.26325
LeftLeg  23.2986 2.27004 0.805384
LeftFoot  6.86742 -0.0178412 0.458866
LeftToes  -34.8779 1.87998e-006 4.79886e-008
302
root  -62.4343 34.29 29.9492 -168.087 -7.40215 177.511
RightUpLeg  -18.6149 1.60915 -9.78078
RightLeg  33.1657 -15.1026 -8.38472
RightFoot  -10.9184 0.289346 3.67304
RightToes  2.68666 0.00608719 0.0255685
Spine  -1.44107 0.620193 -1.19389
Spine1  -2.92338 1.326 -1.68068
HEad  -67.1709 -27.4075 10.4813
LeftShoulder1  -1.94126e-019 -3.10601e-018 -2.51263e-017
LeftArm  -9.4917 18.8868 -78.5224
LeftForeArm  27.7634 -24.9396 -4.30901
LeftHand  -0.195503 0.921824 5.01462
RightShoulder  -4.96962e-017 0 -2.36833e-017
RightArm  -13.4155 -12.7719 81.0259
RightForeArm  50.5397 34.4603 4.8302
RightHand  -0.290642 -2.73783 -12.3501
LeftUpLeg  -25.0767 3.30998 0.759415
LeftLeg  21.9921 6.19894 2.04327
LeftFoot  6.10341 -0.037605 0.86689
LeftToes  -31.4356 1.87998e-006 4.79886e-008
